#N canvas 137 104 504 294 10;
#X obj 369 64 osc~ 440;
#X obj 369 105 *~;
#X obj 369 126 dac~;
#X obj 384 85 r volume;
#X obj 18 4 vsl 32 256 0 127 0 0 empty empty empty 0 -9 0 10 -262144
-1 -1 0 1;
#X connect 0 0 1 0;
#X connect 1 0 2 0;
#X connect 1 0 2 1;
#X connect 3 0 1 1;
