#N struct 1004template-marker float a float b;
#N struct 1005template-marker float a float b;
#N struct 1006template-marker float a float b;
#N canvas 16 536 1054 401 10;
#X obj 10 111 print;
#X text 79 63 <- "menubang hello";
#X obj 10 59 menubang hello;
#X obj 10 90 r hello-menubang;
#X obj 227 189 print onesie;
#X obj 227 168 r onesie;
#X text 335 61 <- "touch 100 100 onesie";
#X obj 351 152 r twosie;
#X obj 351 173 print twosie;
#X obj 227 61 touch 100 100 onesie;
#X text 410 93 <- 50x50;
#X text 225 34 touch - 2d touch surface in PdDroidParty;
#X text 9 33 menubang - Android menu item;
#X obj 251 266 ribbon 150 25 ribbonone;
#X obj 251 296 r ribbonone;
#X obj 251 317 print ribbonone;
#X obj 351 95 touch 50 50 twosie;
#X text 245 249 "ribbon 150 25 ribbonone";
#X text 251 236 ribbon - dragable touch ribbon;
#X text 8 4 special GUIs emulated by PdDroidParty;
#X obj 758 88 loadsave hello;
#X msg 758 53 \; hello load /tmp .wav;
#X obj 758 113 r hello-filename;
#X symbolatom 758 134 48 0 0 0 - - -;
#X text 756 34 loadsave - androidy file panels;
#X msg 894 53 \; hello save /tmp .sav;
#X obj 203 34 cnv 3 3 200 empty empty empty 20 12 0 14 -99865 -66577
0;
#X obj 494 34 cnv 3 3 200 empty empty empty 20 12 0 14 -99865 -66577
0;
#X obj 749 34 cnv 3 3 200 empty empty empty 20 12 0 14 -99865 -66577
0;
#X obj 507 73 wordbutton 100 25 testing;
#X obj 507 110 r wordbutton-testing;
#X obj 507 131 bng 15 250 50 0 empty empty empty 17 7 0 10 -262144
-1 -1;
#X text 506 44 wordbutton - a button with a word on it;
#X text 500 56 "wordbutton 100 25 testing";
#X connect 3 0 0 0;
#X connect 5 0 4 0;
#X connect 7 0 8 0;
#X connect 14 0 15 0;
#X connect 22 0 23 0;
#X connect 30 0 31 0;
