#N struct 1063template-marker float a float b;
#N struct 1064template-marker float a float b;
#N canvas 232 126 686 300 10;
#X obj 10 91 print;
#X text 79 43 <- "menubang hello";
#X obj 10 39 menubang hello;
#X obj 10 70 r hello-menubang;
#X obj 241 168 print onesie;
#X obj 241 147 r onesie;
#X text 349 40 <- "touch 100 100 onesie";
#X obj 365 131 r twosie;
#X obj 365 152 print twosie;
#X obj 241 40 touch 100 100 onesie;
#X obj 365 74 touch 50 50 twosie;
#X text 424 72 <- 50x50;
#X text 239 13 touch - 2d touch surface in PdDroidParty;
#X text 9 13 menubang - Android menu item;
#X connect 3 0 0 0;
#X connect 5 0 4 0;
#X connect 7 0 8 0;
