#N canvas 401 108 365 181 10;
#X obj 13 33 r \$1;
#X obj 13 98 openpanel;
#X obj 138 98 savepanel;
#X obj 13 54 route load save;
#X text 52 33 <- format = load/save initial-directory extension;
#X obj 13 77 unpack s s;
#X obj 138 77 unpack s s;
#X text 11 9 args: send/receive-name;
#X obj 13 160 s \$1-filename;
#X obj 138 119 list prepend save;
#X msg 13 119 list prepend load;
#X connect 0 0 3 0;
#X connect 1 0 10 0;
#X connect 2 0 9 0;
#X connect 3 0 5 0;
#X connect 3 1 6 0;
#X connect 5 0 1 0;
#X connect 6 0 2 0;
#X connect 9 0 8 0;
#X connect 10 0 8 0;
