#N struct 1005template-marker float a float b;
#N canvas 197 79 997 472 10;
#N canvas 873 274 450 300 \$0template-marker 0;
#X obj 8 74 outlet;
#X obj 8 52 struct \$0template-marker float a float b;
#X obj 8 -23 filledpolygon 0 0 1 a(0:100)(0:100) b(0:100)(0:100) a(0:100)(10:110)
b(0:100)(0:100) a(0:100)(10:110) b(0:100)(10:110) a(0:100)(0:100) b(0:100)(10:110)
;
#X connect 1 0 0 0;
#X restore 354 16 pd \$0template-marker;
#N canvas 0 50 613 616 \$0data-marker 0;
#X scalar 1040template-marker 0 0 \;;
#X coords 0 0 110 110 200 140 2 0 0;
#X restore 0 0 pd \$0data-marker;
#X text 352 -1 args: width height sender;
#X obj 354 90 get \$0template-marker a b;
#X obj 354 190 pack f f;
#X obj 354 240 s \$3;
#X obj 789 283 \$0;
#X obj 789 327 t s s;
#X msg 819 351 \; \$1 clear \;;
#X obj 789 306 makefilename pd-%ddata-marker;
#X obj 789 411 pointer;
#X msg 789 388 traverse \$1 \, bang;
#X msg 730 235 bang;
#X obj 624 435 append \$0template-marker a b;
#X obj 730 208 loadbang;
#X msg 798 262 bang;
#X msg 234 319 bang;
#X obj 730 262 t b b b b;
#X obj 234 339 pack \$0 \$1 \$2;
#X obj 830 159 namecanvas pd-\$0-self;
#X obj 354 137 / 100;
#X obj 546 138 / 100;
#X obj 519 9 loadbang;
#X obj 519 51 t f f;
#X msg 706 393 0;
#X msg 624 393 0;
#X obj 354 37 route change click;
#X obj 354 59 t a b;
#X obj 406 59 t b;
#X msg 436 159 -1 -1;
#X msg 519 30 -100;
#X obj 436 138 delay 300;
#X msg 234 362 \; pd-\$1data-marker donecanvasdialog 1 1 3 0 0 110
110 \$2 \$3 0 0 1 1 1 \; pd-\$1data-marker dirty 0 \; pd-\$1-self donecanvasdialog
1 1 3 0 0 1 1 \$2 \$3 0 0 1 1 1 \; pd-\$1-self dirty 0 \;;
#X obj 414 242 outlet;
#X obj 471 243 outlet;
#X obj 414 214 unpack f f;
#X obj 620 116 set \$0template-marker a b;
#X msg 767 61 traverse \$1 \, next;
#X obj 767 87 pointer;
#X obj 767 35 makefilename pd-\$0data-marker;
#X obj 620 9 inlet;
#X obj 686 8 inlet;
#X obj 686 90 t b f;
#X obj 620 36 clip 0 1;
#X obj 686 36 clip 0 1;
#X obj 620 62 * 100;
#X obj 686 62 * 100;
#X obj 767 9 loadbang;
#X connect 0 0 26 0;
#X connect 3 0 20 0;
#X connect 3 1 21 0;
#X connect 4 0 5 0;
#X connect 4 0 35 0;
#X connect 6 0 9 0;
#X connect 7 0 11 0;
#X connect 7 1 8 0;
#X connect 9 0 7 0;
#X connect 10 0 13 2;
#X connect 11 0 10 0;
#X connect 12 0 17 0;
#X connect 14 0 12 0;
#X connect 15 0 6 0;
#X connect 16 0 18 0;
#X connect 17 0 16 0;
#X connect 17 1 25 0;
#X connect 17 2 24 0;
#X connect 17 3 6 0;
#X connect 18 0 32 0;
#X connect 20 0 4 0;
#X connect 21 0 4 1;
#X connect 22 0 30 0;
#X connect 23 0 20 0;
#X connect 23 1 21 0;
#X connect 24 0 13 1;
#X connect 25 0 13 0;
#X connect 26 0 27 0;
#X connect 26 1 28 0;
#X connect 26 2 28 0;
#X connect 27 0 3 0;
#X connect 27 1 31 0;
#X connect 28 0 31 0;
#X connect 29 0 4 0;
#X connect 30 0 23 0;
#X connect 31 0 29 0;
#X connect 35 0 33 0;
#X connect 35 1 34 0;
#X connect 37 0 38 0;
#X connect 38 0 36 2;
#X connect 39 0 37 0;
#X connect 40 0 43 0;
#X connect 41 0 44 0;
#X connect 42 0 36 0;
#X connect 42 1 36 1;
#X connect 43 0 45 0;
#X connect 44 0 46 0;
#X connect 45 0 36 0;
#X connect 46 0 42 0;
#X connect 47 0 39 0;
#X coords 0 0 1 1 100 40 2 0 0;
