#N canvas 288 211 360 200 10;
#X obj 275 38 loadbang;
#X msg 275 60 \; pd dsp 1 \;;
#N canvas 463 188 450 448 stuff 0;
#X floatatom 93 16 5 0 0 0 - - -;
#X floatatom 93 194 5 0 0 0 - - -;
#X floatatom 132 152 5 0 0 0 - - -;
#X obj 93 374 line~;
#X msg 93 349 1 \, 0 200;
#X obj 22 376 osc~ 440;
#X obj 74 421 dac~;
#X obj 75 397 *~;
#X obj 171 107 tgl 15 0 empty empty am_master 17 7 0 10 -262144 -1
-1 1 1;
#X obj 93 257 mod 4;
#X obj 93 279 == 0;
#X msg 22 330 440;
#X msg 33 352 660;
#X obj 93 301 sel 1 0;
#X obj 210 60 tgl 15 0 empty empty connected 17 7 0 10 -262144 -1 -1
1 1;
#X obj 210 80 s \$0/connected;
#X obj 171 127 s \$0/master;
#X obj 132 170 s \$0/rate;
#X obj 133 257 s \$0/tick;
#X obj 93 212 t f f f;
#X obj 135 13 r \$0/rate-set;
#X obj 307 80 print connected;
#X obj 249 127 print master;
#X obj 197 170 print rate;
#X obj 93 37 netro 200 main-netro;
#X obj 197 257 print tick;
#X obj 93 93 pipe 0;
#X obj 126 72 r \$0/latency;
#X obj 228 14 droidnetreceive 63876 main-netro 1;
#X connect 0 0 24 0;
#X connect 1 0 19 0;
#X connect 2 0 17 0;
#X connect 2 0 23 0;
#X connect 3 0 7 1;
#X connect 4 0 3 0;
#X connect 5 0 7 0;
#X connect 7 0 6 0;
#X connect 7 0 6 1;
#X connect 8 0 16 0;
#X connect 8 0 22 0;
#X connect 9 0 10 0;
#X connect 10 0 13 0;
#X connect 11 0 5 0;
#X connect 12 0 5 0;
#X connect 13 0 12 0;
#X connect 13 0 4 0;
#X connect 13 1 11 0;
#X connect 13 1 4 0;
#X connect 14 0 15 0;
#X connect 14 0 21 0;
#X connect 19 0 9 0;
#X connect 19 1 18 0;
#X connect 19 2 25 0;
#X connect 20 0 24 0;
#X connect 24 0 26 0;
#X connect 24 1 2 0;
#X connect 24 2 8 0;
#X connect 24 3 14 0;
#X connect 26 0 1 0;
#X connect 27 0 26 1;
#X restore 282 10 pd stuff;
#X obj 14 65 tgl 32 0 empty \$0/connected empty 17 7 0 10 -262144 -1
-1 1 1;
#X obj 14 113 tgl 32 0 empty \$0/master empty 17 7 0 10 -262144 -1
-1 1 1;
#X obj 14 15 nbx 5 32 -1e+37 1e+37 0 0 empty \$0/tick empty 0 -8 0
10 -262144 -1 -1 5404 256;
#X obj 105 15 nbx 5 32 -1e+37 1e+37 0 0 \$0/rate-set \$0/rate empty
0 -8 0 10 -262144 -1 -1 180 256;
#X text 53 73 connected;
#X text 54 121 master;
#X obj 130 113 hsl 128 32 0 300 0 0 \$0/latency empty latency_compensate
-2 -8 0 10 -262144 -1 -1 7500 1;
#X connect 0 0 1 0;
