#N canvas 753 128 450 300 10;
#X text 14 91 inlet: milliseconds;
#X text 13 128 This is GPLv3 and copyright Chris Mccormick \, 2010
<chris@mccormick.cx>;
#X floatatom 17 239 5 0 0 0 - - -;
#X floatatom 57 239 5 0 0 0 - - -;
#X floatatom 17 177 5 0 0 0 - - -;
#X floatatom 235 177 5 0 0 0 - - -;
#X text 14 4 Netro is a local-area-network synchronized metro. Drop
one into your patch and it will negotiate with other patches on the
network that also contain a [netro] so that they output the same tick
at approximately the same time.;
#X obj 17 195 netro a;
#X obj 63 216 tgl 15 0 empty empty am_master 17 7 0 10 -262144 -1 -1
0 1;
#X floatatom 235 239 5 0 0 0 - - -;
#X floatatom 275 239 5 0 0 0 - - -;
#X obj 281 216 tgl 15 0 empty empty am_master 17 7 0 10 -262144 -1
-1 0 1;
#X obj 235 194 netro b;
#X text 14 107 outlet: tick tick-length am-i-master?;
#X connect 4 0 7 0;
#X connect 5 0 12 0;
#X connect 7 0 2 0;
#X connect 7 1 3 0;
#X connect 7 2 8 0;
#X connect 12 0 9 0;
#X connect 12 1 10 0;
#X connect 12 2 11 0;
