#N canvas 669 164 314 199 10;
#N canvas 118 108 1128 438 guts 0;
#X obj 276 205 loadbang;
#X obj 276 356 netsend 1;
#X obj 728 163 adc~;
#X obj 729 190 snapshot~;
#X obj 130 317 s \$0/pos_r;
#X obj 250 84 r \$0/pos;
#X obj 697 388 random 1e+06;
#X msg 697 341 seed \$1;
#X obj 729 212 * 10000;
#X obj 697 363 t b a;
#X obj 697 410 s \$0/id;
#X obj 12 140 route pos;
#X obj 250 159 pack f f;
#X obj 651 71 delay 100;
#X obj 295 137 r \$0/id;
#X obj 12 162 unpack f f;
#X obj 12 295 s \$0/from_id;
#X msg 250 181 send pos \$2 \$1;
#X obj 564 181 * 10000;
#X obj 651 93 t b b;
#X obj 697 296 +;
#X obj 54 222 r \$0/id;
#X obj 12 206 t f f;
#X obj 39 118 print NET;
#X obj 12 96 t a a;
#X obj 130 272 f;
#X obj 39 243 !=;
#X obj 39 265 sel 1;
#X obj 276 400 print connected;
#X msg 130 294 set \$1;
#X obj 12 65 list trim;
#X obj 12 14 netreceive 12345 1;
#X text 538 133 startup time entropy;
#X text 725 143 audio entropy;
#X msg 500 42 \; pd dsp 1;
#X obj 500 18 loadbang;
#X text 881 42 network connection time entropy;
#X obj 892 88 netsend 1;
#X obj 892 110 sel 1;
#X obj 890 228 * 10000;
#X obj 651 36 t b b;
#X obj 697 318 +;
#X obj 890 255 print entropy-net;
#X obj 733 244 print entropy-adc;
#X obj 564 234 print entropy-startup;
#X obj 651 15 r \$0/new-id;
#X obj 196 24 loadbang;
#X obj 196 46 s \$0/new-id;
#X text 283 34 get a new ID at startup;
#N canvas 603 145 450 300 net-throttle 0;
#X obj 106 10 inlet;
#X text 174 12 after the first message \, start throttling;
#X obj 121 269 outlet;
#X obj 121 193 spigot 1;
#X obj 159 233 f;
#X obj 169 58 spigot 1;
#X obj 106 32 t b f f b b;
#X obj 192 152 spigot 0;
#X msg 164 87 1;
#X obj 192 174 t b b;
#X msg 219 198 0;
#X obj 70 73 t b b;
#X msg 97 95 0;
#X msg 70 143 1;
#X obj 72 215 s \$0/throttle;
#X obj 214 36 r \$0/throttle;
#X obj 192 129 metro 30;
#X obj 70 121 delay 32;
#X obj 106 165 r \$0/throttle;
#X connect 0 0 6 0;
#X connect 3 0 2 0;
#X connect 4 0 2 0;
#X connect 5 0 16 0;
#X connect 6 0 11 0;
#X connect 6 1 3 0;
#X connect 6 2 4 1;
#X connect 6 3 8 0;
#X connect 6 4 5 0;
#X connect 7 0 9 0;
#X connect 8 0 7 1;
#X connect 9 0 4 0;
#X connect 9 1 10 0;
#X connect 10 0 7 1;
#X connect 11 0 17 0;
#X connect 11 1 12 0;
#X connect 12 0 14 0;
#X connect 13 0 14 0;
#X connect 15 0 5 1;
#X connect 16 0 7 0;
#X connect 17 0 13 0;
#X connect 18 0 3 1;
#X restore 250 106 pd net-throttle;
#X msg 303 250 connect 255.255.255.255 12345;
#X obj 276 227 t b b;
#X obj 276 279 delay 500;
#X obj 276 378 t f f;
#X obj 315 378 sel 1;
#X text 341 279 fall back to android's network;
#X msg 276 300 connect 192.168.43.255 12345;
#X msg 892 65 disconnect \, connect 127.0.0.1 13142;
#X obj 276 322 spigot 1;
#X msg 355 378 0;
#X obj 890 206 realtime;
#X obj 564 159 realtime;
#X msg 931 110 disconnect;
#X connect 0 0 51 0;
#X connect 1 0 53 0;
#X connect 2 0 3 0;
#X connect 2 1 3 0;
#X connect 3 0 8 0;
#X connect 5 0 49 0;
#X connect 6 0 10 0;
#X connect 7 0 9 0;
#X connect 8 0 20 1;
#X connect 8 0 43 0;
#X connect 9 0 6 0;
#X connect 9 1 6 0;
#X connect 11 0 15 0;
#X connect 12 0 17 0;
#X connect 13 0 19 0;
#X connect 14 0 12 1;
#X connect 15 0 22 0;
#X connect 15 1 25 1;
#X connect 17 0 1 0;
#X connect 18 0 20 0;
#X connect 18 0 44 0;
#X connect 19 0 61 1;
#X connect 19 1 3 0;
#X connect 20 0 41 0;
#X connect 21 0 26 1;
#X connect 22 0 16 0;
#X connect 22 1 26 0;
#X connect 24 0 11 0;
#X connect 24 1 23 0;
#X connect 25 0 29 0;
#X connect 26 0 27 0;
#X connect 27 0 25 0;
#X connect 29 0 4 0;
#X connect 30 0 24 0;
#X connect 31 0 30 0;
#X connect 35 0 34 0;
#X connect 37 0 38 0;
#X connect 38 0 62 0;
#X connect 38 0 60 1;
#X connect 39 0 41 1;
#X connect 39 0 42 0;
#X connect 40 0 13 0;
#X connect 40 1 57 0;
#X connect 41 0 7 0;
#X connect 45 0 40 0;
#X connect 46 0 47 0;
#X connect 49 0 12 0;
#X connect 50 0 1 0;
#X connect 51 0 52 0;
#X connect 51 1 50 0;
#X connect 52 0 56 0;
#X connect 53 0 28 0;
#X connect 53 1 54 0;
#X connect 54 0 59 0;
#X connect 56 0 58 0;
#X connect 57 0 37 0;
#X connect 58 0 1 0;
#X connect 59 0 58 1;
#X connect 60 0 39 0;
#X connect 61 0 18 0;
#X connect 62 0 37 0;
#X restore 249 15 pd guts;
#X obj 29 104 hsl 128 32 0 127 0 0 \$0/pos \$0/pos_r empty -2 -8 0
10 -262144 -1 -1 4330 0;
#X obj 26 150 bng 32 250 50 0 \$0/new-id empty generate-id 34 4 0 10
-262144 -1 -1;
#X obj 26 35 nbx 10 14 -1e+37 1e+37 0 0 empty \$0/id ID 0 -8 0 10 -262144
-1 -1 197002 256;
#X obj 26 72 nbx 10 14 -1e+37 1e+37 0 0 empty \$0/from_id FID 0 -8
0 10 -262144 -1 -1 936371 256;
