#N canvas 300 251 509 306 10;
#X obj 381 205 loadbang;
#X msg 381 226 \; pd dsp 1;
#X obj 62 9 tgl 32 0 empty receive empty 17 7 0 10 -262144 -1 -1 1
1;
#X obj 276 86 loadbang;
#X obj 276 107 metro 250;
#X obj 276 128 s receive;
#X connect 0 0 1 0;
#X connect 3 0 4 0;
#X connect 4 0 5 0;
