#N canvas 678 209 314 199 10;
#N canvas 85 81 601 438 guts 0;
#X obj 356 90 loadbang;
#X obj 280 245 netsend 1;
#X msg 366 110 bang;
#X msg 356 152 connect 255.255.255.255 12345;
#X obj 130 347 s \$0/pos_r;
#X obj 186 91 r \$0/pos;
#X obj 483 380 s \$0/id;
#X obj 12 170 route pos;
#X obj 186 136 pack f f;
#X obj 231 114 r \$0/id;
#X obj 12 192 unpack f f;
#X obj 12 325 s \$0/from_id;
#X msg 186 158 send pos \$2 \$1;
#X obj 356 131 t b b;
#X obj 280 267 sel 1;
#X obj 446 255 r \$0/new-id;
#X obj 280 332 s \$0/new-id;
#X obj 383 175 s \$0/new-id;
#X obj 54 252 r \$0/id;
#X obj 12 236 t f f;
#X obj 39 148 print NET;
#X obj 12 126 t a a;
#X obj 130 302 f;
#X obj 39 273 !=;
#X obj 39 295 sel 1;
#X obj 307 310 print connected;
#X obj 280 289 t b b;
#X msg 130 324 set \$1;
#X obj 12 95 list trim;
#X obj 483 286 s-seeder;
#X obj 483 308 t b a;
#X msg 510 330 seed \$1;
#X obj 483 358 random 65536;
#X text 446 229 generates a new ID;
#X text 13 19 receive a packet;
#X text 355 63 UDP broadcast setup on start;
#X text 162 68 what to do with slider touch;
#X obj 12 73 r netx;
#X obj 12 44 droidnetreceive 12345 netx 1;
#X connect 0 0 13 0;
#X connect 1 0 14 0;
#X connect 2 0 13 0;
#X connect 3 0 1 0;
#X connect 5 0 8 0;
#X connect 7 0 10 0;
#X connect 8 0 12 0;
#X connect 9 0 8 1;
#X connect 10 0 19 0;
#X connect 10 1 22 1;
#X connect 12 0 1 0;
#X connect 13 0 3 0;
#X connect 13 1 17 0;
#X connect 14 0 26 0;
#X connect 15 0 32 0;
#X connect 18 0 23 1;
#X connect 19 0 11 0;
#X connect 19 1 23 0;
#X connect 21 0 7 0;
#X connect 21 1 20 0;
#X connect 22 0 27 0;
#X connect 23 0 24 0;
#X connect 24 0 22 0;
#X connect 26 0 16 0;
#X connect 26 1 25 0;
#X connect 27 0 4 0;
#X connect 28 0 21 0;
#X connect 29 0 30 0;
#X connect 30 0 32 0;
#X connect 30 1 31 0;
#X connect 31 0 32 0;
#X connect 32 0 6 0;
#X connect 37 0 28 0;
#X restore 259 168 pd guts;
#X obj 12 144 hsl 128 32 0 127 0 0 \$0/pos \$0/pos_r slider_replicant
-2 -8 0 10 -262144 -1 -1 3732 0;
#X obj 9 65 nbx 10 14 -1e+37 1e+37 0 0 empty \$0/id ID 0 -8 0 10 -262144
-1 -1 60810 256;
#X obj 9 102 nbx 10 14 -1e+37 1e+37 0 0 empty \$0/from_id FID 0 -8
0 10 -262144 -1 -1 35715 256;
#X text 7 13 load this patch on multiple devices;
#X text 7 29 on the same network;
