#N canvas 431 182 480 266 10;
#N canvas 815 54 435 597 audio 0;
#X obj 16 17 loadbang;
#X msg 16 38 \; pd dsp 1;
#X obj 206 287 dac~;
#N canvas 887 38 450 518 connectors_1 0;
#X obj 10 0 r toggle_1_0;
#X obj 100 0 list prepend 0;
#X obj 200 0 s sequence_1;
#X obj 10 28 r toggle_1_1;
#X obj 100 28 list prepend 1;
#X obj 200 28 s sequence_1;
#X obj 10 56 r toggle_1_2;
#X obj 100 56 list prepend 2;
#X obj 200 56 s sequence_1;
#X obj 10 84 r toggle_1_3;
#X obj 100 84 list prepend 3;
#X obj 200 84 s sequence_1;
#X obj 10 112 r toggle_1_4;
#X obj 100 112 list prepend 4;
#X obj 200 112 s sequence_1;
#X obj 10 140 r toggle_1_5;
#X obj 100 140 list prepend 5;
#X obj 200 140 s sequence_1;
#X obj 10 168 r toggle_1_6;
#X obj 100 168 list prepend 6;
#X obj 200 168 s sequence_1;
#X obj 10 196 r toggle_1_7;
#X obj 100 196 list prepend 7;
#X obj 200 196 s sequence_1;
#X obj 10 224 r toggle_1_8;
#X obj 100 224 list prepend 8;
#X obj 200 224 s sequence_1;
#X obj 10 252 r toggle_1_9;
#X obj 100 252 list prepend 9;
#X obj 200 252 s sequence_1;
#X obj 10 280 r toggle_1_10;
#X obj 100 280 list prepend 10;
#X obj 200 280 s sequence_1;
#X obj 10 308 r toggle_1_11;
#X obj 100 308 list prepend 11;
#X obj 200 308 s sequence_1;
#X obj 10 336 r toggle_1_12;
#X obj 100 336 list prepend 12;
#X obj 200 336 s sequence_1;
#X obj 10 364 r toggle_1_13;
#X obj 100 364 list prepend 13;
#X obj 200 364 s sequence_1;
#X obj 10 392 r toggle_1_14;
#X obj 100 392 list prepend 14;
#X obj 200 392 s sequence_1;
#X obj 10 420 r toggle_1_15;
#X obj 100 420 list prepend 15;
#X obj 200 420 s sequence_1;
#X connect 0 0 1 0;
#X connect 1 0 2 0;
#X connect 3 0 4 0;
#X connect 4 0 5 0;
#X connect 6 0 7 0;
#X connect 7 0 8 0;
#X connect 9 0 10 0;
#X connect 10 0 11 0;
#X connect 12 0 13 0;
#X connect 13 0 14 0;
#X connect 15 0 16 0;
#X connect 16 0 17 0;
#X connect 18 0 19 0;
#X connect 19 0 20 0;
#X connect 21 0 22 0;
#X connect 22 0 23 0;
#X connect 24 0 25 0;
#X connect 25 0 26 0;
#X connect 27 0 28 0;
#X connect 28 0 29 0;
#X connect 30 0 31 0;
#X connect 31 0 32 0;
#X connect 33 0 34 0;
#X connect 34 0 35 0;
#X connect 36 0 37 0;
#X connect 37 0 38 0;
#X connect 39 0 40 0;
#X connect 40 0 41 0;
#X connect 42 0 43 0;
#X connect 43 0 44 0;
#X connect 45 0 46 0;
#X connect 46 0 47 0;
#X restore 39 376 pd connectors_1;
#X obj 16 437 table sequence_1 16;
#X obj 16 457 table sequence_2 16;
#X obj 16 477 table sequence_3 16;
#N canvas 884 32 450 488 connectors_2 0;
#X obj 10 0 r toggle_2_0;
#X obj 100 0 list prepend 0;
#X obj 200 0 s sequence_2;
#X obj 10 28 r toggle_2_1;
#X obj 100 28 list prepend 1;
#X obj 200 28 s sequence_2;
#X obj 10 56 r toggle_2_2;
#X obj 100 56 list prepend 2;
#X obj 200 56 s sequence_2;
#X obj 10 84 r toggle_2_3;
#X obj 100 84 list prepend 3;
#X obj 200 84 s sequence_2;
#X obj 10 112 r toggle_2_4;
#X obj 100 112 list prepend 4;
#X obj 200 112 s sequence_2;
#X obj 10 140 r toggle_2_5;
#X obj 100 140 list prepend 5;
#X obj 200 140 s sequence_2;
#X obj 10 168 r toggle_2_6;
#X obj 100 168 list prepend 6;
#X obj 200 168 s sequence_2;
#X obj 10 196 r toggle_2_7;
#X obj 100 196 list prepend 7;
#X obj 200 196 s sequence_2;
#X obj 10 224 r toggle_2_8;
#X obj 100 224 list prepend 8;
#X obj 200 224 s sequence_2;
#X obj 10 252 r toggle_2_9;
#X obj 100 252 list prepend 9;
#X obj 200 252 s sequence_2;
#X obj 10 280 r toggle_2_10;
#X obj 100 280 list prepend 10;
#X obj 200 280 s sequence_2;
#X obj 10 308 r toggle_2_11;
#X obj 100 308 list prepend 11;
#X obj 200 308 s sequence_2;
#X obj 10 336 r toggle_2_12;
#X obj 100 336 list prepend 12;
#X obj 200 336 s sequence_2;
#X obj 10 364 r toggle_2_13;
#X obj 100 364 list prepend 13;
#X obj 200 364 s sequence_2;
#X obj 10 392 r toggle_2_14;
#X obj 100 392 list prepend 14;
#X obj 200 392 s sequence_2;
#X obj 10 420 r toggle_2_15;
#X obj 100 420 list prepend 15;
#X obj 200 420 s sequence_2;
#X connect 0 0 1 0;
#X connect 1 0 2 0;
#X connect 3 0 4 0;
#X connect 4 0 5 0;
#X connect 6 0 7 0;
#X connect 7 0 8 0;
#X connect 9 0 10 0;
#X connect 10 0 11 0;
#X connect 12 0 13 0;
#X connect 13 0 14 0;
#X connect 15 0 16 0;
#X connect 16 0 17 0;
#X connect 18 0 19 0;
#X connect 19 0 20 0;
#X connect 21 0 22 0;
#X connect 22 0 23 0;
#X connect 24 0 25 0;
#X connect 25 0 26 0;
#X connect 27 0 28 0;
#X connect 28 0 29 0;
#X connect 30 0 31 0;
#X connect 31 0 32 0;
#X connect 33 0 34 0;
#X connect 34 0 35 0;
#X connect 36 0 37 0;
#X connect 37 0 38 0;
#X connect 39 0 40 0;
#X connect 40 0 41 0;
#X connect 42 0 43 0;
#X connect 43 0 44 0;
#X connect 45 0 46 0;
#X connect 46 0 47 0;
#X restore 39 396 pd connectors_2;
#N canvas 0 0 450 300 connectors_3 0;
#X obj 10 0 r toggle_3_0;
#X obj 100 0 list prepend 0;
#X obj 200 0 s sequence_3;
#X obj 10 28 r toggle_3_1;
#X obj 100 28 list prepend 1;
#X obj 200 28 s sequence_3;
#X obj 10 56 r toggle_3_2;
#X obj 100 56 list prepend 2;
#X obj 200 56 s sequence_3;
#X obj 10 84 r toggle_3_3;
#X obj 100 84 list prepend 3;
#X obj 200 84 s sequence_3;
#X obj 10 112 r toggle_3_4;
#X obj 100 112 list prepend 4;
#X obj 200 112 s sequence_3;
#X obj 10 140 r toggle_3_5;
#X obj 100 140 list prepend 5;
#X obj 200 140 s sequence_3;
#X obj 10 168 r toggle_3_6;
#X obj 100 168 list prepend 6;
#X obj 200 168 s sequence_3;
#X obj 10 196 r toggle_3_7;
#X obj 100 196 list prepend 7;
#X obj 200 196 s sequence_3;
#X obj 10 224 r toggle_3_8;
#X obj 100 224 list prepend 8;
#X obj 200 224 s sequence_3;
#X obj 10 252 r toggle_3_9;
#X obj 100 252 list prepend 9;
#X obj 200 252 s sequence_3;
#X obj 10 280 r toggle_3_10;
#X obj 100 280 list prepend 10;
#X obj 200 280 s sequence_3;
#X obj 10 308 r toggle_3_11;
#X obj 100 308 list prepend 11;
#X obj 200 308 s sequence_3;
#X obj 10 336 r toggle_3_12;
#X obj 100 336 list prepend 12;
#X obj 200 336 s sequence_3;
#X obj 10 364 r toggle_3_13;
#X obj 100 364 list prepend 13;
#X obj 200 364 s sequence_3;
#X obj 10 392 r toggle_3_14;
#X obj 100 392 list prepend 14;
#X obj 200 392 s sequence_3;
#X obj 10 420 r toggle_3_15;
#X obj 100 420 list prepend 15;
#X obj 200 420 s sequence_3;
#X connect 0 0 1 0;
#X connect 1 0 2 0;
#X connect 3 0 4 0;
#X connect 4 0 5 0;
#X connect 6 0 7 0;
#X connect 7 0 8 0;
#X connect 9 0 10 0;
#X connect 10 0 11 0;
#X connect 12 0 13 0;
#X connect 13 0 14 0;
#X connect 15 0 16 0;
#X connect 16 0 17 0;
#X connect 18 0 19 0;
#X connect 19 0 20 0;
#X connect 21 0 22 0;
#X connect 22 0 23 0;
#X connect 24 0 25 0;
#X connect 25 0 26 0;
#X connect 27 0 28 0;
#X connect 28 0 29 0;
#X connect 30 0 31 0;
#X connect 31 0 32 0;
#X connect 33 0 34 0;
#X connect 34 0 35 0;
#X connect 36 0 37 0;
#X connect 37 0 38 0;
#X connect 39 0 40 0;
#X connect 40 0 41 0;
#X connect 42 0 43 0;
#X connect 43 0 44 0;
#X connect 45 0 46 0;
#X connect 46 0 47 0;
#X restore 39 416 pd connectors_3;
#N canvas 0 0 450 562 buildtoggles 0;
#X obj 115 194 * 3;
#X obj 115 215 + 2;
#X msg 22 90 16;
#X obj 22 131 until;
#X obj 22 152 f;
#X obj 52 152 + 1;
#X obj 22 111 t f b;
#X msg 62 131 0;
#X obj 22 194 * 28;
#X obj 22 257 t a a;
#X obj 85 215 + 1;
#X obj 56 194 * 3;
#X obj 85 194 * 3;
#X obj 22 173 t f f f f f;
#X msg 49 282 \; pd-connectors_\$3 obj 10 \$1 r toggle_\$3_\$2 \; pd-connectors_\$3
obj 100 \$1 list prepend \$2 \; pd-connectors_\$3 obj 200 \$1 s sequence_\$3
\; pd-connectors_\$3 connect \$4 0 \$5 0 \; pd-connectors_\$3 connect
\$5 0 \$6 0 \;;
#X obj 22 236 pack f f 3 f f f;
#X msg 22 368 \; pd-droidparty_main.pd obj \$1 200 tgl 25 1 toggle_\$3_\$2
empty empty 17 7 0 10 -262144 -1 -1 1 0 \;;
#X connect 0 0 1 0;
#X connect 1 0 15 5;
#X connect 2 0 6 0;
#X connect 3 0 4 0;
#X connect 4 0 5 0;
#X connect 4 0 13 0;
#X connect 5 0 4 1;
#X connect 6 0 3 0;
#X connect 6 1 7 0;
#X connect 7 0 4 1;
#X connect 8 0 15 0;
#X connect 9 0 16 0;
#X connect 9 1 14 0;
#X connect 10 0 15 4;
#X connect 11 0 15 3;
#X connect 12 0 10 0;
#X connect 13 0 8 0;
#X connect 13 1 15 1;
#X connect 13 2 11 0;
#X connect 13 3 12 0;
#X connect 13 4 0 0;
#X connect 15 0 9 0;
#X restore 44 547 pd buildtoggles;
#X obj 18 87 loadbang;
#X obj 18 108 metro 100;
#X obj 18 129 f;
#X obj 48 129 + 1;
#X obj 18 150 mod 16;
#X obj 18 171 s tick;
#X obj 179 17 drum sequence_1 sample_1;
#X obj 221 38 drum sequence_2 sample_2;
#X obj 273 58 drum sequence_3 sample_3;
#N canvas 0 0 450 300 (subpatch) 0;
#X array sample_1 39753 float 2;
#X coords 0 1 39753 -1 50 25 1;
#X restore 271 461 graph;
#N canvas 0 0 450 300 (subpatch) 0;
#X array sample_2 5825 float 2;
#X coords 0 1 5825 -1 50 25 1;
#X restore 271 506 graph;
#X obj 214 259 tanh~;
#N canvas 0 0 450 300 (subpatch) 0;
#X array sample_3 4976 float 2;
#X coords 0 1 4976 -1 50 25 1;
#X restore 271 551 graph;
#X obj 19 202 r tick;
#X obj 19 223 mod 16;
#X obj 19 274 + 14;
#X msg 19 295 \; ticker pos \$1 78;
#X obj 19 244 * 28;
#X obj 242 188 vd~ delayunit;
#X obj 255 265 delwrite~ delayunit 2000;
#X obj 214 216 +~;
#X obj 255 243 *~ 0;
#X obj 359 103 r length;
#X obj 359 124 mtof~;
#X obj 281 216 r feedback;
#X obj 79 66 r bpm;
#X obj 345 144 /~;
#X obj 285 83 loadbang;
#X msg 285 104 bang;
#X obj 285 125 samplerate~;
#X obj 79 87 expr 15000 / $f1;
#X connect 0 0 1 0;
#X connect 10 0 11 0;
#X connect 11 0 12 0;
#X connect 12 0 13 0;
#X connect 12 0 14 0;
#X connect 13 0 12 1;
#X connect 14 0 15 0;
#X connect 16 0 30 0;
#X connect 17 0 30 0;
#X connect 18 0 30 0;
#X connect 21 0 2 1;
#X connect 21 0 2 0;
#X connect 23 0 24 0;
#X connect 24 0 27 0;
#X connect 25 0 26 0;
#X connect 27 0 25 0;
#X connect 28 0 30 1;
#X connect 30 0 21 0;
#X connect 30 0 31 0;
#X connect 31 0 29 0;
#X connect 32 0 33 0;
#X connect 33 0 36 1;
#X connect 34 0 31 1;
#X connect 35 0 40 0;
#X connect 36 0 28 0;
#X connect 37 0 38 0;
#X connect 38 0 39 0;
#X connect 39 0 36 0;
#X connect 40 0 11 1;
#X restore 409 240 pd audio;
#X obj 15 99 tgl 25 1 toggle_1_0 empty empty 17 7 0 10 -262144 -1 -1
1 1;
#X obj 43 99 tgl 25 1 toggle_1_1 empty empty 17 7 0 10 -262144 -1 -1
0 1;
#X obj 71 99 tgl 25 1 toggle_1_2 empty empty 17 7 0 10 -262144 -1 -1
0 1;
#X obj 99 99 tgl 25 1 toggle_1_3 empty empty 17 7 0 10 -262144 -1 -1
0 1;
#X obj 127 99 tgl 25 1 toggle_1_4 empty empty 17 7 0 10 -262144 -1
-1 0 1;
#X obj 155 99 tgl 25 1 toggle_1_5 empty empty 17 7 0 10 -262144 -1
-1 0 1;
#X obj 183 99 tgl 25 1 toggle_1_6 empty empty 17 7 0 10 -262144 -1
-1 0 1;
#X obj 211 99 tgl 25 1 toggle_1_7 empty empty 17 7 0 10 -262144 -1
-1 0 1;
#X obj 239 99 tgl 25 1 toggle_1_8 empty empty 17 7 0 10 -262144 -1
-1 0 1;
#X obj 267 99 tgl 25 1 toggle_1_9 empty empty 17 7 0 10 -262144 -1
-1 0 1;
#X obj 295 99 tgl 25 1 toggle_1_10 empty empty 17 7 0 10 -262144 -1
-1 1 1;
#X obj 323 99 tgl 25 1 toggle_1_11 empty empty 17 7 0 10 -262144 -1
-1 0 1;
#X obj 351 99 tgl 25 1 toggle_1_12 empty empty 17 7 0 10 -262144 -1
-1 0 1;
#X obj 379 99 tgl 25 1 toggle_1_13 empty empty 17 7 0 10 -262144 -1
-1 0 1;
#X obj 407 99 tgl 25 1 toggle_1_14 empty empty 17 7 0 10 -262144 -1
-1 0 1;
#X obj 435 99 tgl 25 1 toggle_1_15 empty empty 17 7 0 10 -262144 -1
-1 0 1;
#X obj 15 149 tgl 25 1 toggle_2_0 empty empty 17 7 0 10 -262144 -1
-1 0 1;
#X obj 43 149 tgl 25 1 toggle_2_1 empty empty 17 7 0 10 -262144 -1
-1 0 1;
#X obj 71 149 tgl 25 1 toggle_2_2 empty empty 17 7 0 10 -262144 -1
-1 0 1;
#X obj 99 149 tgl 25 1 toggle_2_3 empty empty 17 7 0 10 -262144 -1
-1 0 1;
#X obj 127 149 tgl 25 1 toggle_2_4 empty empty 17 7 0 10 -262144 -1
-1 1 1;
#X obj 155 149 tgl 25 1 toggle_2_5 empty empty 17 7 0 10 -262144 -1
-1 0 1;
#X obj 183 149 tgl 25 1 toggle_2_6 empty empty 17 7 0 10 -262144 -1
-1 0 1;
#X obj 211 149 tgl 25 1 toggle_2_7 empty empty 17 7 0 10 -262144 -1
-1 0 1;
#X obj 239 149 tgl 25 1 toggle_2_8 empty empty 17 7 0 10 -262144 -1
-1 0 1;
#X obj 267 149 tgl 25 1 toggle_2_9 empty empty 17 7 0 10 -262144 -1
-1 1 1;
#X obj 295 149 tgl 25 1 toggle_2_10 empty empty 17 7 0 10 -262144 -1
-1 0 1;
#X obj 323 149 tgl 25 1 toggle_2_11 empty empty 17 7 0 10 -262144 -1
-1 0 1;
#X obj 351 149 tgl 25 1 toggle_2_12 empty empty 17 7 0 10 -262144 -1
-1 1 1;
#X obj 379 149 tgl 25 1 toggle_2_13 empty empty 17 7 0 10 -262144 -1
-1 0 1;
#X obj 407 149 tgl 25 1 toggle_2_14 empty empty 17 7 0 10 -262144 -1
-1 0 1;
#X obj 435 149 tgl 25 1 toggle_2_15 empty empty 17 7 0 10 -262144 -1
-1 0 1;
#X obj 15 199 tgl 25 1 toggle_3_0 empty empty 17 7 0 10 -262144 -1
-1 1 1;
#X obj 43 199 tgl 25 1 toggle_3_1 empty empty 17 7 0 10 -262144 -1
-1 0 1;
#X obj 71 199 tgl 25 1 toggle_3_2 empty empty 17 7 0 10 -262144 -1
-1 1 1;
#X obj 99 199 tgl 25 1 toggle_3_3 empty empty 17 7 0 10 -262144 -1
-1 0 1;
#X obj 127 199 tgl 25 1 toggle_3_4 empty empty 17 7 0 10 -262144 -1
-1 1 1;
#X obj 155 199 tgl 25 1 toggle_3_5 empty empty 17 7 0 10 -262144 -1
-1 0 1;
#X obj 183 199 tgl 25 1 toggle_3_6 empty empty 17 7 0 10 -262144 -1
-1 1 1;
#X obj 211 199 tgl 25 1 toggle_3_7 empty empty 17 7 0 10 -262144 -1
-1 1 1;
#X obj 239 199 tgl 25 1 toggle_3_8 empty empty 17 7 0 10 -262144 -1
-1 1 1;
#X obj 267 199 tgl 25 1 toggle_3_9 empty empty 17 7 0 10 -262144 -1
-1 0 1;
#X obj 295 199 tgl 25 1 toggle_3_10 empty empty 17 7 0 10 -262144 -1
-1 1 1;
#X obj 323 199 tgl 25 1 toggle_3_11 empty empty 17 7 0 10 -262144 -1
-1 0 1;
#X obj 351 199 tgl 25 1 toggle_3_12 empty empty 17 7 0 10 -262144 -1
-1 1 1;
#X obj 379 199 tgl 25 1 toggle_3_13 empty empty 17 7 0 10 -262144 -1
-1 0 1;
#X obj 407 199 tgl 25 1 toggle_3_14 empty empty 17 7 0 10 -262144 -1
-1 1 1;
#X obj 435 199 tgl 25 1 toggle_3_15 empty empty 17 7 0 10 -262144 -1
-1 0 1;
#X obj 210 78 cnv 15 24 16 empty ticker empty 20 12 0 14 -258113 -66577
0;
#X obj 396 -1 numberbox 64 32 bpm-r bpm 30 300 125;
#X obj 15 -1 hsl 256 32 0 127 0 0 length empty empty -2 -8 0 10 -262144
-1 -1 0 1;
#X obj 15 39 hsl 256 32 0 1 0 0 feedback empty empty -2 -8 0 10 -262144
-1 -1 0 1;
